<?xml version="1.0" encoding="UTF-8" standalone="no"?>
<svg
   xmlns:dc="http://purl.org/dc/elements/1.1/"
   xmlns:cc="http://creativecommons.org/ns#"
   xmlns:rdf="http://www.w3.org/1999/02/22-rdf-syntax-ns#"
   xmlns:svg="http://www.w3.org/2000/svg"
   xmlns="http://www.w3.org/2000/svg"
   xmlns:sodipodi="http://sodipodi.sourceforge.net/DTD/sodipodi-0.dtd"
   xmlns:inkscape="http://www.inkscape.org/namespaces/inkscape"
   version="1.1"
   width="315.43735"
   height="365.63187"
   id="svg169"
   inkscape:version="0.91 r13725"
   viewBox="0 0 315.43735 365.63186"
   sodipodi:docname="hero.svg"
   inkscape:export-filename="/home/h/Desktop/novo logo/OPTIONAL.cdr.png"
   inkscape:export-xdpi="269"
   inkscape:export-ydpi="269">
  <metadata
     id="metadata334">
    <rdf:RDF>
      <cc:Work
         rdf:about="">
        <dc:format>image/svg+xml</dc:format>
        <dc:type
           rdf:resource="http://purl.org/dc/dcmitype/StillImage" />
        <dc:title></dc:title>
      </cc:Work>
    </rdf:RDF>
  </metadata>
  <defs
     id="defs332" />
  <sodipodi:namedview
     pagecolor="#ffffff"
     bordercolor="#666666"
     borderopacity="1"
     objecttolerance="10"
     gridtolerance="10"
     guidetolerance="10"
     inkscape:pageopacity="0"
     inkscape:pageshadow="2"
     inkscape:window-width="1366"
     inkscape:window-height="740"
     id="namedview330"
     showgrid="false"
     fit-margin-top="0"
     fit-margin-left="0"
     fit-margin-right="0"
     fit-margin-bottom="0"
     inkscape:zoom="0.56064347"
     inkscape:cx="-68.191497"
     inkscape:cy="236.01358"
     inkscape:window-x="0"
     inkscape:window-y="28"
     inkscape:window-maximized="1"
     inkscape:current-layer="svg169" />
  <path
     d="m 144.29777,8.0123993 c -12.5997,-3.7037 -28.4947,12.6224997 -35.5041,36.4661997 -7.0089,23.8441 -2.4773,46.175 10.122,49.8787 12.5998,3.7037 28.4947,-12.6225 35.5041,-36.4666 7.0089,-23.8437 2.4774,-46.1746 -10.122,-49.8782997 z"
     style="fill:#f9f9fa;fill-rule:evenodd"
     id="path173"
     inkscape:connector-curvature="0" />
  <path
     d="m 142.20387,15.183999 c -3.4187,-1.0057 -7.9122,1.3465 -12.4025,5.9606 -5.6248,5.7785 -10.6841,14.7145 -13.8325,25.426 -3.1561,10.747 -3.7404,21.0074 -2.1338,28.9203 1.2782,6.2936 3.773,10.6889 7.1736,11.6886 3.4293,1.0042 7.9125,-1.3444 12.3996,-5.9516 5.6251,-5.7764 10.6829,-14.7079 13.8301,-25.4128 3.16,-10.7496 3.7458,-21.0146 2.1407,-28.932 -1.2767,-6.2981 -3.7745,-10.6994 -7.1752,-11.6991 z m -23.1052,-4.4982 c 8.355,-8.5826997 18.1182,-12.5451997 27.292,-9.84949973 9.1964,2.70310003 15.2726,11.32889973 17.6556,23.07979973 2.0549,10.1336 1.3996,22.9589 -2.4542,36.0678 -3.8625,13.138 -10.2617,24.2911 -17.4811,31.7028 -8.3557,8.578501 -18.1129,12.538001 -27.2842,9.844101 -9.2015,-2.708901 -15.2745,-11.326501 -17.658899,-23.072901 -2.0564,-10.1291 -1.4008,-22.9523 2.447399,-36.056 3.8636,-13.1447 10.2646,-24.3002 17.4834,-31.7161 z"
     style="fill:#1a1a1a;fill-rule:evenodd"
     id="path175"
     inkscape:connector-curvature="0" />
  <path
     d="m 240.47767,255.6057 c -0.0234,-6.1889 4.9727,-11.2276 11.1616,-11.2509 6.1889,-0.0234 11.2276,4.9727 11.251,11.1616 0.0701,10.4197 -1.3926,20.714 -4.2946,30.549 -2.9254,9.918 -7.2817,19.3767 -12.9645,28.0424 -3.3974,5.1918 -10.3645,6.6481 -15.5562,3.2507 -5.1918,-3.3974 -6.6481,-10.3644 -3.2507,-15.5562 4.5178,-6.8883 7.9577,-14.3316 10.2389,-22.0639 2.3047,-7.8175 3.4697,-15.9496 3.4145,-24.1327 z"
     style="fill:#1a1a1a;fill-rule:evenodd"
     id="path177"
     inkscape:connector-curvature="0" />
  <path
     d="m 96.305371,241.6552 c -60.2958,14.7204 -66.9776,0.9657 -20.0453,-41.264 -12.754,-53.0519 16.5015,-107.195401 67.867999,-125.600101 51.3666,-18.4048 108.3483,4.8358 132.1915,53.916201 23.8419,49.0776 6.8872,108.2368 -39.3318,137.2385 -46.2202,28.9989 -106.8627,18.5297 -140.682399,-24.2906 z"
     style="fill:#f5a731;fill-rule:evenodd"
     id="path179"
     inkscape:connector-curvature="0" />
  <path
     d="m 93.507771,249.9945 c -31.2421,7.1159 -49.3048,5.6617 -54.1735,-4.3626 -4.7687,-9.8159 4.8006,-25.7803 28.7015,-47.874 -5.3895,-26.9433 -0.7888,-53.9163 11.5231,-76.7031 12.9858,-24.037001 34.560799,-43.447701 62.050399,-53.295501 l 0,-0.0297 c 27.4747,-9.8415 56.4546,-8.5467 81.748,1.7688 25.3041,10.3219 46.9365,29.6816 59.699,55.955101 12.7541,26.2544 14.5995,55.2025 7.0776,81.4527 -7.524,26.2629 -24.4302,49.8491 -49.1624,65.367 -24.7406,15.5222 -53.3294,20.4865 -80.2364,15.8411 -25.4316,-4.3902 -49.392,-17.3697 -67.227299,-38.1198 z m -40.6987,-10.8683 c 1.5775,3.2486 15.4924,1.669 41.7383,-4.7368 l 4.6411,-1.131 2.976499,3.7673 c 15.7114,19.8954 37.6797,32.2839 61.0915,36.3254 23.4183,4.0438 48.2716,-0.2593 69.7467,-13.732 21.4856,-13.4812 36.1744,-33.9826 42.7162,-56.8162 6.5461,-22.8442 4.9473,-48.025 -6.1379,-70.8437 -11.0745,-22.7996 -29.8622,-39.605901 -51.8496,-48.573501 -21.9917,-8.9698 -47.1916,-10.0944 -71.0839,-1.535 l -0.008,-0.0255 c -23.869,8.553 -42.6121,25.421001 -53.899199,46.317801 -11.302,20.9138 -15.1459,45.8522 -9.2164,70.5205 l 1.0418,4.3286 -3.2975,2.9659 c -20.6757,18.6006 -30.162,29.6624 -28.4591,33.1682 z"
     style="fill:#1a1a1a;fill-rule:evenodd"
     id="path181"
     inkscape:connector-curvature="0" />
  <path
     d="m 28.587771,46.703099 c -8.9878,12.6907 3.1942,36.7662 27.2108,53.775101 24.0162,17.0093 50.770199,20.5102 59.757999,7.8196 8.9878,-12.690701 -3.1942,-36.766201 -27.210799,-53.775101 -24.0162,-17.0093 -50.7702,-20.5102 -59.758,-7.8196 z"
     style="fill:#f9f9fa;fill-rule:evenodd"
     id="path183"
     inkscape:connector-curvature="0" />
  <path
     d="m 35.307871,51.652699 c -1.1084,1.6459 -1.5114,3.8271 -1.2944,6.3706 0.2571,3.0136 1.3769,6.4787 3.2418,10.1634 2.2096,4.3672 5.3958,8.8842 9.4153,13.2766 3.8923,4.2544 8.59,8.4093 13.966,12.2189 5.3622,3.7926 10.8403,6.840901 16.1549,9.105901 5.4954,2.339 10.8026,3.8457 15.6124,4.4741 4.1179,0.5305 7.763899,0.4375 10.678099,-0.3201 2.5222,-0.6548 4.4755,-1.8044 5.654,-3.4691 l 0.0212,-0.013 c 1.1643,-1.6528 1.5963,-3.879001 1.3731,-6.482601 -0.2575,-3.0114 -1.3769,-6.4787 -3.2418,-10.1634 -2.2096,-4.3671 -5.3937,-8.8838 -9.413199,-13.2762 -3.894,-4.2569 -8.593,-8.411 -13.9742,-12.2226 -5.3457,-3.7853 -10.8207,-6.8319 -16.1428,-9.0993 -5.498,-2.3428 -10.8065,-3.8487 -15.6175,-4.4761 -4.1175,-0.5327 -7.7614,-0.4393 -10.6778,0.3179 -2.5222,0.6548 -4.4754,1.8044 -5.654,3.4691 l -0.1011,0.1259 z m -12.9236,24.1018 c -3.1431,-6.2069 -4.902,-12.3662 -5.086,-18.0929 -0.1817,-5.7018 1.1858,-10.9889 4.284,-15.4998 0.0872,-0.1673 0.298,-0.4365 0.4162,-0.5972 3.229,-4.4057 7.7583,-7.4396 13.1922,-9.1552 5.4564,-1.7239 11.8447,-2.1071 18.7336,-1.205 6.1471,0.8035 12.8069,2.6584 19.5941,5.5151 6.5095,2.7391 13.1365,6.3903 19.5327,10.9083 l 0.1364,0.1107 c 6.4003,4.5265 12.063599,9.5684 16.827199,14.8157 4.9581,5.4461 8.9318,11.1306 11.7461,16.6911 3.1431,6.2069 4.9007,12.3671 5.0847,18.0938 0.1825,5.703101 -1.1858,10.988901 -4.2828,15.499001 -0.0872,0.1672 -0.2979,0.4364 -0.4175,0.598 -3.2286,4.4036 -7.7573,7.4409 -13.1925,9.1574 -5.4573,1.7226 -11.841199,2.1066 -18.732299,1.204 -6.1416,-0.8035 -12.7992,-2.6581 -19.5825,-5.5119 -6.473,-2.7249 -13.0882,-6.3729 -19.5053,-10.899 l -0.1778,-0.1157 c -6.397,-4.5326 -12.0591,-9.575501 -16.8236,-14.824001 -4.97,-5.4738 -8.9452,-11.1552 -11.7469,-16.6924 z"
     style="fill:#1a1a1a;fill-rule:evenodd"
     id="path185"
     inkscape:connector-curvature="0" />
  <path
     d="m 134.72297,268.1721 c 3.98,-1.0991 8.1002,1.2353 9.1994,5.2152 1.0991,3.9799 -1.2352,8.1002 -5.2152,9.1993 L 87.682371,296.829 c -3.9799,1.0991 -8.1001,-1.2353 -9.1993,-5.2152 -1.0992,-3.9799 1.2352,-8.1002 5.2152,-9.1994 l 51.024699,-14.2423 z"
     style="fill:#1a1a1a;fill-rule:evenodd"
     id="path187"
     inkscape:connector-curvature="0" />
  <path
     d="m 57.981771,289.6472 c 3.9948,-1.0673 8.1002,1.3075 9.1674,5.3023 1.0673,3.9949 -1.3075,8.1002 -5.3023,9.1675 l -11.4912,3.0764 c -3.9948,1.0672 -8.1002,-1.3075 -9.1675,-5.3024 -1.0672,-3.9948 1.3075,-8.1002 5.3024,-9.1674 l 11.4912,-3.0764 z"
     style="fill:#1a1a1a;fill-rule:evenodd"
     id="path189"
     inkscape:connector-curvature="0" />
  <path
     d="m 38.262771,189.883 c 3.5739,-2.0537 8.1406,-0.8206 10.1943,2.7532 2.0538,3.5739 0.8207,8.1406 -2.7532,10.1944 l -34.5161,19.9273 c -3.5738997,2.0537 -8.1405997,0.8206 -10.1942997,-2.7532 -2.0538,-3.5739 -0.8207,-8.1406 2.7532,-10.1944 L 38.262771,189.883 Z"
     style="fill:#1a1a1a;fill-rule:evenodd"
     id="path191"
     inkscape:connector-curvature="0" />
  <path
     d="m 51.905571,142.8636 c 3.5738,-2.0537 8.1405,-0.8206 10.1943,2.7532 2.0537,3.5739 0.8206,8.1406 -2.7532,10.1944 l -34.5162,19.9273 c -3.5738,2.0538 -8.1405,0.8207 -10.1943,-2.7532 -2.0537,-3.5739 -0.8206,-8.1406 2.7532,-10.1943 l 34.5162,-19.9274 z"
     style="fill:#1a1a1a;fill-rule:evenodd"
     id="path193"
     inkscape:connector-curvature="0" />
  <path
     d="m 125.23027,89.434199 c 4.4158,-4.3434 14.5548,-19.0577 18.8983,-14.642 8.4446,1.652 21.6324,1.8858 19.0408,2.6874 -22.5317,6.9606 -43.2223,37.467101 -46.0244,60.198601 -2.109,17.0934 1.3989,34.8691 10.881,50.3679 3.2295,5.2896 1.5563,12.1971 -3.7333,15.4244 -5.2895,3.2273 -12.197,1.5541 -15.4243,-3.7354 -12.224699,-19.9784 -16.750999,-42.8396 -14.046699,-64.7824 2.7064,-21.9577 13.687399,-29.1033 30.408599,-45.518501 z"
     style="fill:#1a1a1a;fill-rule:evenodd"
     id="path195"
     inkscape:connector-curvature="0" />
  <path
     d="m 125.19977,303.666 73.791,-28.5906 12.7451,45.2394 -71.8782,25.5609 -14.6579,-42.2097 z"
     style="fill:#f9f9fa;fill-rule:evenodd"
     id="path197"
     inkscape:connector-curvature="0" />
  <path
     d="m 122.37157,296.3578 73.7907,-28.5939 c 4.0364,-1.561 8.579,0.4483 10.1401,4.4847 l 0.2364,0.7091 12.7582,45.2369 c 1.1239,4.0074 -1.0771,8.162 -4.9485,9.5246 l -71.8795,25.5633 c -4.09,1.4406 -8.5769,-0.7047 -10.0175,-4.7947 l -14.6582,-42.2686 c -1.376,-3.9963 0.669,-8.3494 4.5783,-9.8614 z m 71.4,-10.8515 -58.6908,22.74 9.5803,27.5859 57.5268,-20.4564 -8.4163,-29.8695 z"
     style="fill:#1a1a1a;fill-rule:evenodd"
     id="path199"
     inkscape:connector-curvature="0" />
  <path
     d="m 209.65527,318.2872 -10.6645,-43.2118 49.1382,16.411 10.5064,41.5467 -48.9801,-14.7459 z"
     style="fill:#f9f9fa;fill-rule:evenodd"
     id="path201"
     inkscape:connector-curvature="0" />
  <path
     d="m 201.94707,319.8114 -10.5772,-42.8596 c -1.0348,-4.2082 1.5365,-8.4609 5.7446,-9.4956 1.5856,-0.3903 3.1779,-0.2676 4.6006,0.2609 l 48.9032,16.333 c 2.6337,0.8809 4.4891,3.0262 5.1202,5.535 l 10.517,41.5439 c 1.0504,4.2081 -1.5075,8.4742 -5.7157,9.5246 -1.4183,0.3546 -2.8411,0.2988 -4.1479,-0.0914 l -48.9812,-14.7452 c -2.8901,-0.8608 -4.915,-3.2403 -5.4636,-6.0056 z m 8.075,-32.782 6.1773,25.0258 31.4217,9.4577 -6.0569,-23.9486 -31.5421,-10.5349 z"
     style="fill:#1a1a1a;fill-rule:evenodd"
     id="path203"
     inkscape:connector-curvature="0" />
  <path
     d="m 258.63537,333.0331 -49.5743,-17.1169 -69.2034,29.9595 53.2876,11.9194 65.4901,-24.762 z"
     style="fill:#f9f9fa;fill-rule:evenodd"
     id="path205"
     inkscape:connector-curvature="0" />
  <path
     d="m 235.58317,333.3613 -26.2055,-9.0496 -44.2936,19.1763 27.4632,6.1438 43.0359,-16.2705 z m -23.971,-24.8519 49.1551,16.9731 c 2.3148,0.6556 4.2996,2.3616 5.2117,4.7857 1.5253,4.0542 -0.5241,8.5835 -4.5784,10.1089 l -65.4903,24.7604 c -1.3782,0.5084 -2.9147,0.6489 -4.4557,0.3077 l -53.2874,-11.9174 c -2.3706,-0.5308 -4.4646,-2.1476 -5.4994,-4.5471 -1.7127,-3.9696 0.116,-8.5813 4.0855,-10.294 l 69.112,-29.9208 c 1.7506,-0.7805 3.7911,-0.9299 5.7469,-0.2565 z"
     style="fill:#1a1a1a;fill-rule:evenodd"
     id="path207"
     inkscape:connector-curvature="0" />
  <path
     d="m 129.88867,226.3362 c 0.6059,-6.1634 6.0975,-10.6684 12.2609,-10.0625 6.1633,0.6059 10.6684,6.0975 10.0625,12.2608 -1.299,13.1347 -0.1361,26.2821 3.3123,38.7874 3.4527,12.516 9.1909,24.3984 17.0338,34.9988 3.6887,4.9749 2.6469,11.9993 -2.328,15.688 -4.9749,3.6887 -11.9993,2.6469 -15.688,-2.328 -9.5097,-12.854 -16.464,-27.243 -20.6395,-42.3804 -4.1777,-15.148 -5.5872,-31.0656 -4.014,-46.9641 z"
     style="fill:#1a1a1a;fill-rule:evenodd"
     id="path209"
     inkscape:connector-curvature="0" />
  <path
     d="m 185.04187,186.4577 c -0.1427,-2.1632 1.4942,-4.0364 3.6573,-4.1791 2.1632,-0.1428 4.0364,1.4941 4.1792,3.6573 0.4081,6.1014 2.5244,11.8305 5.9453,16.6184 3.4098,4.7768 8.142,8.6304 13.7863,10.9987 5.651,2.3706 11.7212,3.0507 17.5239,2.1409 5.8026,-0.9099 11.3711,-3.4143 16.0163,-7.3994 1.6436,-1.4072 4.1234,-1.2154 5.5306,0.4282 1.4071,1.6435 1.2154,4.1234 -0.4282,5.5305 -5.7603,4.9419 -12.6846,8.0483 -19.919,9.1834 -7.2388,1.1352 -14.7764,0.3011 -21.7654,-2.6314 -6.9957,-2.937 -12.8764,-7.7361 -17.1358,-13.7015 -4.2528,-5.9521 -6.882,-13.0682 -7.3905,-20.646 z"
     style="fill:#1a1a1a;fill-rule:evenodd"
     id="path211"
     inkscape:connector-curvature="0" />
  <path
     d="m 291.60527,115.347 c 15.8298,6.8454 21.8294,28.1994 13.398,47.6963 -8.4311,19.4973 -28.0993,29.7516 -43.9291,22.9062 -15.8295,-6.8453 -21.829,-28.1993 -13.3979,-47.6966 8.4313,-19.4969 28.0995,-29.7513 43.929,-22.9059 z"
     style="fill:#f9f9fa;fill-rule:evenodd"
     id="path213"
     inkscape:connector-curvature="0" />
  <path
     d="m 293.54137,108.9982 c 0.4741,0.1449 0.9293,0.3424 1.3526,0.5832 9.4895,4.3553 16.0064,12.8251 18.8868,23.0803 2.7599,9.8243 2.1541,21.3626 -2.442,32.3684 -0.1392,0.4421 -0.3217,0.8616 -0.5456,1.2605 -4.867,10.876 -12.8646,19.2216 -21.9194,23.9419 l 0,0.0263 c -9.4349,4.9179 -20.0588,5.9695 -29.7345,2.0394 -0.476,-0.1449 -0.9294,-0.3424 -1.3527,-0.5832 -9.4895,-4.3553 -16.0064,-12.8251 -18.8867,-23.0803 -2.7599,-9.8243 -2.1542,-21.3626 2.4419,-32.3684 0.1393,-0.4421 0.3218,-0.8616 0.5456,-1.2605 4.867,-10.876 12.8665,-19.2216 21.9195,-23.9419 l 0,-0.0263 c 9.4349,-4.9178 20.0588,-5.9695 29.7345,-2.0394 z m 7.4839,27.2418 c -1.8964,-6.7521 -6.0504,-12.225 -12.001,-14.8118 l -0.0376,-0.0151 c -5.9695,-2.5811 -12.8213,-1.8587 -19.0617,1.3941 l -0.0113,-0.0207 c -6.5188,3.4034 -12.3303,9.5158 -15.9387,17.5567 -0.1204,0.3668 -0.2747,0.7243 -0.4628,1.0705 -3.3808,8.1311 -3.8492,16.5501 -1.8569,23.6427 1.8964,6.7522 6.0523,12.225 12.0029,14.8118 l 0.0358,0.0151 c 5.9695,2.5812 12.8213,1.8587 19.0617,-1.3941 l 0.0113,0.0207 c 6.5188,-3.4034 12.3302,-9.5158 15.9386,-17.5567 0.1204,-0.3668 0.2747,-0.7243 0.4628,-1.0705 3.3808,-8.1311 3.8493,-16.5501 1.8569,-23.6427 z"
     style="fill:#1a1a1a;fill-rule:evenodd"
     id="path215"
     inkscape:connector-curvature="0" />
  <path
     d="m 189.75107,54.827899 c -23.3742,10.1081 -32.2333,41.6395 -19.7835,70.429001 12.4497,28.7898 41.4918,43.9314 64.8663,33.8236 23.3742,-10.1081 32.233,-41.6395 19.7836,-70.429301 -12.4498,-28.7895 -41.4919,-43.9314 -64.8664,-33.8233 z"
     style="fill:#f9f9fa;fill-rule:evenodd"
     id="path217"
     inkscape:connector-curvature="0" />
  <path
     d="m 192.36877,60.892399 c -9.7434,4.2123 -16.5106,13.0508 -19.5659,23.9325 -3.1907,11.3633 -2.3667,24.869401 3.2322,37.814901 l 0.0188,0.0451 c 5.5913,12.9079 14.8569,22.7379 25.3115,28.1881 10.0218,5.2226 21.0954,6.3552 30.8332,2.1485 9.7622,-4.2198 16.5294,-13.0602 19.5847,-23.9381 3.1907,-11.3633 2.3648,-24.8676 -3.2322,-37.814901 -5.5988,-12.9493 -14.8663,-22.7981 -25.3152,-28.2502 l -0.0113,0.0207 c -10.0294,-5.2283 -21.1124,-6.3589 -30.8558,-2.1466 z m -32.3213,20.3542 c 4.1032,-14.6086 13.459,-26.5946 27.0837,-32.4851 13.6302,-5.8923 28.7656,-4.5001 42.2115,2.5078 l 0,0.0264 c 13.0151,6.786 24.495,18.9018 31.3393,34.7351 6.8499,15.844701 7.8244,32.505801 3.8567,46.630901 -4.1013,14.601 -13.4497,26.5795 -27.0668,32.4756 l -0.0263,0.0113 c -13.6265,5.8905 -28.7581,4.4983 -42.1983,-2.5059 -13.0057,-6.7785 -24.4837,-18.9037 -31.3374,-34.7521 l -0.0189,-0.0452 c -6.8405,-15.8352 -7.8075,-32.485001 -3.8435,-46.598801 z"
     style="fill:#1a1a1a;fill-rule:evenodd"
     id="path219"
     inkscape:connector-curvature="0" />
  <path
     d="m 295.71437,122.9583 c 9.2104,3.9843 12.7027,16.4091 7.796,27.7549 -4.9064,11.3459 -16.3515,17.3124 -25.5619,13.3295 -3.3496,-1.4487 -5.9416,-4.0142 -7.6499,-7.2373 l 9.9192,-9.5148 -12.2209,1.2718 c -0.2943,-3.9327 0.3812,-8.1741 2.1541,-12.2744 4.9065,-11.3458 16.3517,-17.3123 25.5634,-13.3297 z"
     style="fill:#1a1a1a;fill-rule:evenodd"
     id="path221"
     inkscape:connector-curvature="0" />
  <path
     d="m 215.35307,69.753499 c -10.9015,4.7155 -16.3763,17.4395 -14.3892,30.931601 l 26.3226,-3.569501 -16.2925,24.710801 c 8.4415,9.1825 20.4367,12.9843 30.5923,8.5927 13.6022,-5.8828 18.7571,-24.2297 11.5139,-40.983101 -7.245,-16.7532 -24.1451,-25.5636 -37.7471,-19.6825 z"
     style="fill:#1a1a1a;fill-rule:evenodd"
     id="path223"
     inkscape:connector-curvature="0" />
</svg>
